<?xml version="1.0" encoding="UTF-8"?>
<svg xmlns="http://www.w3.org/2000/svg" xmlns:xlink="http://www.w3.org/1999/xlink" width="32pt" height="32pt" viewBox="0 0 32 32" version="1.1">
<defs>
<clipPath id="clip1">
  <path d="M 11 1.332031 L 30.667969 1.332031 L 30.667969 30.667969 L 11 30.667969 Z M 11 1.332031 "/>
</clipPath>
<clipPath id="clip2">
  <path d="M 1.332031 7 L 15 7 L 15 20 L 1.332031 20 Z M 1.332031 7 "/>
</clipPath>
</defs>
<g id="surface1">
<g clip-path="url(#clip1)" clip-rule="nonzero">
<path style=" stroke:none;fill-rule:nonzero;fill:rgb(20.784314%,20.784314%,20.784314%);fill-opacity:1;" d="M 28.003906 1.351562 C 27.976562 1.347656 27.949219 1.332031 27.917969 1.332031 L 14.777344 1.332031 C 12.757812 1.332031 11.109375 2.976562 11.109375 5 L 11.109375 6.222656 C 11.109375 6.898438 11.660156 7.445312 12.332031 7.445312 C 13.007812 7.445312 13.554688 6.898438 13.554688 6.222656 L 13.554688 5 C 13.554688 4.328125 14.105469 3.777344 14.777344 3.777344 L 20.472656 3.777344 L 20.097656 3.902344 C 19.109375 4.246094 18.445312 5.175781 18.445312 6.222656 L 18.445312 24.554688 L 14.777344 24.554688 C 14.105469 24.554688 13.554688 24.007812 13.554688 23.332031 L 13.554688 20.890625 C 13.554688 20.214844 13.007812 19.667969 12.332031 19.667969 C 11.660156 19.667969 11.109375 20.214844 11.109375 20.890625 L 11.109375 23.332031 C 11.109375 25.355469 12.757812 27 14.777344 27 L 18.445312 27 L 18.445312 28.222656 C 18.445312 29.570312 19.539062 30.667969 20.890625 30.667969 C 21.152344 30.667969 21.398438 30.628906 21.667969 30.546875 L 29.011719 28.097656 C 30.003906 27.753906 30.667969 26.824219 30.667969 25.777344 L 30.667969 3.777344 C 30.667969 2.351562 29.4375 1.234375 28.003906 1.351562 Z M 28.003906 1.351562 "/>
</g>
<g clip-path="url(#clip2)" clip-rule="nonzero">
<path style=" stroke:none;fill-rule:nonzero;fill:rgb(20.784314%,20.784314%,20.784314%);fill-opacity:1;" d="M 14.417969 12.691406 L 9.53125 7.800781 C 9.179688 7.453125 8.65625 7.347656 8.199219 7.535156 C 7.742188 7.726562 7.445312 8.171875 7.445312 8.667969 L 7.445312 12.332031 L 2.554688 12.332031 C 1.878906 12.332031 1.332031 12.878906 1.332031 13.554688 C 1.332031 14.230469 1.878906 14.777344 2.554688 14.777344 L 7.445312 14.777344 L 7.445312 18.445312 C 7.445312 18.9375 7.742188 19.382812 8.199219 19.574219 C 8.65625 19.761719 9.179688 19.660156 9.53125 19.308594 L 14.417969 14.417969 C 14.898438 13.941406 14.898438 13.167969 14.417969 12.691406 Z M 14.417969 12.691406 "/>
</g>
</g>
</svg>
