<?xml version="1.0" encoding="UTF-8"?>
<svg xmlns="http://www.w3.org/2000/svg" xmlns:xlink="http://www.w3.org/1999/xlink" width="16pt" height="16pt" viewBox="0 0 16 16" version="1.1">
<g id="surface1">
<path style=" stroke:none;fill-rule:nonzero;fill:rgb(94.117647%,31.764706%,22.352941%);fill-opacity:1;" d="M 13.8125 16 L 2.1875 16 C 0.980469 16 0 15.019531 0 13.8125 L 0 2.1875 C 0 0.980469 0.980469 0 2.1875 0 L 13.8125 0 C 15.019531 0 16 0.980469 16 2.1875 L 16 13.8125 C 16 15.019531 15.019531 16 13.8125 16 Z M 13.8125 16 "/>
<path style=" stroke:none;fill-rule:nonzero;fill:rgb(100%,100%,100%);fill-opacity:1;" d="M 2.53125 8.34375 C 3.898438 8.34375 5.183594 8.878906 6.148438 9.851562 C 7.113281 10.820312 7.648438 12.113281 7.648438 13.488281 L 9.75 13.488281 C 9.75 9.492188 6.511719 6.242188 2.53125 6.242188 Z M 2.535156 4.613281 C 7.40625 4.613281 11.363281 8.59375 11.363281 13.492188 L 13.46875 13.492188 C 13.46875 7.4375 8.5625 2.507812 2.535156 2.507812 Z M 5.445312 12.019531 C 5.445312 12.824219 4.792969 13.476562 3.988281 13.476562 C 3.183594 13.476562 2.53125 12.824219 2.53125 12.019531 C 2.53125 11.214844 3.183594 10.5625 3.988281 10.5625 C 4.792969 10.5625 5.445312 11.214844 5.445312 12.019531 Z M 5.445312 12.019531 "/>
</g>
</svg>
